<svg width="202" height="202" viewBox="0 0 202 202" fill="none" xmlns="http://www.w3.org/2000/svg">
<path d="M100.646 201.354C100.842 201.549 101.158 201.549 101.354 201.354L104.536 198.172C104.731 197.976 104.731 197.66 104.536 197.464C104.34 197.269 104.024 197.269 103.828 197.464L101 200.293L98.1716 197.464C97.9763 197.269 97.6597 197.269 97.4645 197.464C97.2692 197.66 97.2692 197.976 97.4645 198.172L100.646 201.354ZM100.5 101L100.5 201H101.5L101.5 101H100.5Z" fill="white"/>
<path d="M101.354 0.646447C101.158 0.451184 100.842 0.451184 100.646 0.646447L97.4645 3.82843C97.2692 4.02369 97.2692 4.34027 97.4645 4.53553C97.6597 4.7308 97.9763 4.7308 98.1716 4.53553L101 1.70711L103.828 4.53553C104.024 4.7308 104.34 4.7308 104.536 4.53553C104.731 4.34027 104.731 4.02369 104.536 3.82843L101.354 0.646447ZM101.5 101V1H100.5V101H101.5Z" fill="white"/>
<path d="M0.646447 100.646C0.451184 100.842 0.451184 101.158 0.646447 101.354L3.82843 104.536C4.02369 104.731 4.34027 104.731 4.53553 104.536C4.7308 104.34 4.7308 104.024 4.53553 103.828L1.70711 101L4.53553 98.1716C4.7308 97.9763 4.7308 97.6597 4.53553 97.4645C4.34027 97.2692 4.02369 97.2692 3.82843 97.4645L0.646447 100.646ZM101 100.5L1 100.5V101.5L101 101.5V100.5Z" fill="white"/>
<path d="M201.354 101.354C201.549 101.158 201.549 100.842 201.354 100.646L198.172 97.4645C197.976 97.2692 197.66 97.2692 197.464 97.4645C197.269 97.6597 197.269 97.9763 197.464 98.1716L200.293 101L197.464 103.828C197.269 104.024 197.269 104.34 197.464 104.536C197.66 104.731 197.976 104.731 198.172 104.536L201.354 101.354ZM101 101.5H201V100.5H101V101.5Z" fill="white"/>
</svg>
